<?xml version="1.0" encoding="UTF-8" standalone="no"?>
<!-- Created with Inkscape (http://www.inkscape.org/) -->

<svg
   xmlns:dc="http://purl.org/dc/elements/1.1/"
   xmlns:cc="http://creativecommons.org/ns#"
   xmlns:rdf="http://www.w3.org/1999/02/22-rdf-syntax-ns#"
   xmlns:svg="http://www.w3.org/2000/svg"
   xmlns="http://www.w3.org/2000/svg"
   xmlns:sodipodi="http://sodipodi.sourceforge.net/DTD/sodipodi-0.dtd"
   xmlns:inkscape="http://www.inkscape.org/namespaces/inkscape"
   width="150"
   height="150"
   viewBox="0 0 39.687499 39.687501"
   version="1.1"
   id="svg8"
   inkscape:version="0.92.3 (2405546, 2018-03-11)"
   sodipodi:docname="processoe-users.svg"
   inkscape:export-filename="D:\OneDrive\images\Vector and anim\Flux\flux41.png"
   inkscape:export-xdpi="96"
   inkscape:export-ydpi="96">
  <defs
     id="defs2" />
  <sodipodi:namedview
     id="base"
     pagecolor="#ffffff"
     bordercolor="#666666"
     borderopacity="1.0"
     inkscape:pageopacity="0.0"
     inkscape:pageshadow="2"
     inkscape:zoom="0.70000001"
     inkscape:cx="-157.82209"
     inkscape:cy="151.3692"
     inkscape:document-units="mm"
     inkscape:current-layer="layer1"
     showgrid="false"
     units="px"
     inkscape:window-width="1920"
     inkscape:window-height="1017"
     inkscape:window-x="-8"
     inkscape:window-y="-8"
     inkscape:window-maximized="1"
     inkscape:snap-global="false" />
  <metadata
     id="metadata5">
    <rdf:RDF>
      <cc:Work
         rdf:about="">
        <dc:format>image/svg+xml</dc:format>
        <dc:type
           rdf:resource="http://purl.org/dc/dcmitype/StillImage" />
        <dc:title />
      </cc:Work>
    </rdf:RDF>
  </metadata>
  <g
     inkscape:label="Calque 1"
     inkscape:groupmode="layer"
     id="layer1"
     transform="translate(0,-257.31248)">
    <ellipse
       style="opacity:1;fill:#ffffff;fill-opacity:1;stroke:#c8b7b7;stroke-width:4;stroke-linecap:round;stroke-linejoin:round;stroke-miterlimit:4;stroke-dasharray:none;stroke-opacity:1"
       id="path814"
       cx="20.166374"
       cy="277.22775"
       rx="15.760881"
       ry="16.044363" />
    <g
       style="opacity:1;fill:#00aa00;fill-opacity:1"
       transform="matrix(0.00754452,0,0,0.00800447,20.925011,269.37435)"
       id="status-8">
      <path
         style="fill:#00aa00;fill-opacity:1"
         inkscape:connector-curvature="0"
         id="path3940-5-8"
         d="M 959.98,769.382 C 873.16,846.125 770.543,880.92 645.557,880.92 c -124.986,0 -228.083,-35.757 -314.903,-112.5 -136.539,44.711 -299.819,158.492 -300,357.211 l -0.48,370.673 c -0.089,68.183 54.892,123.081 123.077,123.081 h 984.614 c 68.185,0 123.077,-54.894 123.077,-123.081 v -369.23 c 0,-170.673 -135.669,-314.558 -300.961,-357.692 z" />
      <path
         style="fill:#00aa00;fill-opacity:1"
         inkscape:connector-curvature="0"
         id="path3942-6-2"
         d="m 1014.788,388.615 c 0,203.92 -165.31,369.23 -369.23,369.23 -203.92,0 -369.23,-165.311 -369.23,-369.23 0,-203.919 165.31,-369.23 369.23,-369.23 203.92,0 369.23,165.311 369.23,369.23 z" />
    </g>
    <g
       style="opacity:1;fill:#00aa00;fill-opacity:1"
       transform="matrix(0.00754452,0,0,0.00800447,9.7390039,269.39431)"
       id="status-6">
      <path
         style="fill:#00aa00;fill-opacity:1"
         inkscape:connector-curvature="0"
         id="path3940-5-6"
         d="M 959.98,769.382 C 873.16,846.125 770.543,880.92 645.557,880.92 c -124.986,0 -228.083,-35.757 -314.903,-112.5 -136.539,44.711 -299.819,158.492 -300,357.211 l -0.48,370.673 c -0.089,68.183 54.892,123.081 123.077,123.081 h 984.614 c 68.185,0 123.077,-54.894 123.077,-123.081 v -369.23 c 0,-170.673 -135.669,-314.558 -300.961,-357.692 z" />
      <path
         style="fill:#00aa00;fill-opacity:1"
         inkscape:connector-curvature="0"
         id="path3942-6-5"
         d="m 1014.788,388.615 c 0,203.92 -165.31,369.23 -369.23,369.23 -203.92,0 -369.23,-165.311 -369.23,-369.23 0,-203.919 165.31,-369.23 369.23,-369.23 203.92,0 369.23,165.311 369.23,369.23 z" />
    </g>
    <g
       transform="matrix(0.00754452,0,0,0.00800447,15.368713,272.73786)"
       id="status">
      <path
         inkscape:connector-curvature="0"
         id="path3940-5"
         d="M 959.98,769.382 C 873.16,846.125 770.543,880.92 645.557,880.92 c -124.986,0 -228.083,-35.757 -314.903,-112.5 -136.539,44.711 -299.819,158.492 -300,357.211 l -0.48,370.673 c -0.089,68.183 54.892,123.081 123.077,123.081 h 984.614 c 68.185,0 123.077,-54.894 123.077,-123.081 v -369.23 c 0,-170.673 -135.669,-314.558 -300.961,-357.692 z" />
      <path
         inkscape:connector-curvature="0"
         id="path3942-6"
         d="m 1014.788,388.615 c 0,203.92 -165.31,369.23 -369.23,369.23 -203.92,0 -369.23,-165.311 -369.23,-369.23 0,-203.919 165.31,-369.23 369.23,-369.23 203.92,0 369.23,165.311 369.23,369.23 z" />
    </g>
  </g>
</svg>
