<?xml version="1.0" encoding="UTF-8" standalone="no"?>
<!-- Created with Inkscape (http://www.inkscape.org/) -->

<svg
   xmlns:dc="http://purl.org/dc/elements/1.1/"
   xmlns:cc="http://creativecommons.org/ns#"
   xmlns:rdf="http://www.w3.org/1999/02/22-rdf-syntax-ns#"
   xmlns:svg="http://www.w3.org/2000/svg"
   xmlns="http://www.w3.org/2000/svg"
   xmlns:sodipodi="http://sodipodi.sourceforge.net/DTD/sodipodi-0.dtd"
   xmlns:inkscape="http://www.inkscape.org/namespaces/inkscape"
   width="150"
   height="150"
   viewBox="0 0 39.687499 39.687501"
   version="1.1"
   id="svg8"
   inkscape:version="0.92.3 (2405546, 2018-03-11)"
   sodipodi:docname="processoe-stock.svg"
   inkscape:export-filename="D:\OneDrive\images\Vector and anim\Flux\flux41.png"
   inkscape:export-xdpi="96"
   inkscape:export-ydpi="96">
  <defs
     id="defs2" />
  <sodipodi:namedview
     id="base"
     pagecolor="#ffffff"
     bordercolor="#666666"
     borderopacity="1.0"
     inkscape:pageopacity="0.0"
     inkscape:pageshadow="2"
     inkscape:zoom="1.979899"
     inkscape:cx="176.27927"
     inkscape:cy="-11.130557"
     inkscape:document-units="mm"
     inkscape:current-layer="layer1"
     showgrid="false"
     units="px"
     inkscape:window-width="1920"
     inkscape:window-height="1017"
     inkscape:window-x="-8"
     inkscape:window-y="-8"
     inkscape:window-maximized="1"
     inkscape:snap-global="false" />
  <metadata
     id="metadata5">
    <rdf:RDF>
      <cc:Work
         rdf:about="">
        <dc:format>image/svg+xml</dc:format>
        <dc:type
           rdf:resource="http://purl.org/dc/dcmitype/StillImage" />
        <dc:title />
      </cc:Work>
    </rdf:RDF>
  </metadata>
  <g
     inkscape:label="Calque 1"
     inkscape:groupmode="layer"
     id="layer1"
     transform="translate(0,-257.31248)">
    <ellipse
       style="opacity:1;fill:#ffffff;fill-opacity:1;stroke:#c8b7b7;stroke-width:4;stroke-linecap:round;stroke-linejoin:round;stroke-miterlimit:4;stroke-dasharray:none;stroke-opacity:1"
       id="path814"
       cx="20.166374"
       cy="277.22775"
       rx="15.760881"
       ry="16.044363" />
    <g
       id="g1305"
       transform="matrix(1.8398181,0,0,2.0435136,3600.8867,2245.7929)">
      <path
         style="opacity:1;fill:#ffffff;fill-opacity:1;stroke:#cd1616;stroke-width:0.02520282;stroke-linecap:round;stroke-linejoin:round;stroke-miterlimit:4;stroke-dasharray:none;stroke-opacity:0.90196078"
         d="m -1949.4596,-958.9171 c -0.01,-0.0128 -0.3707,-1.57375 -0.8045,-3.46889 -0.6036,-2.63745 -0.7813,-3.45263 -0.7579,-3.47527 0.03,-0.0289 4.6341,-0.90866 4.6552,-0.88949 0.01,0.005 0.071,0.27385 0.1453,0.59666 0.1423,0.61996 0.1678,0.67808 0.3107,0.70641 0.038,0.007 0.3712,-0.0428 0.7613,-0.11608 l 0.6923,-0.12986 0.028,0.12336 c 0.016,0.0679 0.098,0.42636 0.1844,0.7967 l 1.038,4.70026 c -0.023,0.0205 -6.1186,1.17939 -6.2034,1.17939 -0.021,0 -0.045,-0.0105 -0.054,-0.0232 z"
         id="path1281"
         inkscape:connector-curvature="0"
         sodipodi:nodetypes="cccccccccccscc" />
      <path
         style="opacity:1;fill:#ffffff;fill-opacity:1;stroke:#cd1616;stroke-width:0.03555219;stroke-linecap:round;stroke-linejoin:round;stroke-miterlimit:4;stroke-dasharray:none;stroke-opacity:0.90196078"
         d="m -1945.9462,-966.04548 c -0.054,-0.22313 -0.093,-0.41106 -0.085,-0.41762 0.018,-0.0165 1.1654,0.5942 1.1654,0.61984 0,0.0118 -0.2025,0.0559 -0.45,0.0988 -0.2474,0.0429 -0.4685,0.0841 -0.4911,0.0914 -0.025,0.008 -0.08,-0.14614 -0.1389,-0.39244 z"
         id="path1283"
         inkscape:connector-curvature="0" />
      <g
         id="g1279"
         transform="matrix(0.02013797,-0.00378815,0.00363353,0.01585165,-1952.7801,-965.7774)">
        <g
           id="g1223">
          <path
             id="path1221"
             d="M 327.081,0 H 90.234 C 74.331,0 61.381,12.959 61.381,28.859 v 412.863 c 0,15.924 12.95,28.863 28.853,28.863 H 380.35 c 15.917,0 28.855,-12.939 28.855,-28.863 V 89.234 Z m 6.81,43.184 35.996,39.121 h -35.996 z m 51.081,398.539 c 0,2.542 -2.081,4.629 -4.635,4.629 H 90.234 c -2.55,0 -4.619,-2.087 -4.619,-4.629 V 28.859 c 0,-2.548 2.069,-4.613 4.619,-4.613 h 219.411 v 70.181 c 0,6.682 5.443,12.099 12.129,12.099 h 63.198 z M 128.364,128.89 H 334.15 c 5.013,0 9.079,4.066 9.079,9.079 0,5.013 -4.066,9.079 -9.079,9.079 H 128.364 c -5.012,0 -9.079,-4.066 -9.079,-9.079 0,-5.012 4.067,-9.079 9.079,-9.079 z m 214.865,70.09 c 0,5.012 -4.066,9.079 -9.079,9.079 H 128.364 c -5.012,0 -9.079,-4.066 -9.079,-9.079 0,-5.013 4.067,-9.079 9.079,-9.079 H 334.15 c 5.013,0 9.079,4.067 9.079,9.079 z m 0,59.013 c 0,5.013 -4.066,9.079 -9.079,9.079 H 128.364 c -5.012,0 -9.079,-4.066 -9.079,-9.079 0,-5.013 4.067,-9.079 9.079,-9.079 H 334.15 c 5.013,0 9.079,4.066 9.079,9.079 z m 0,60.018 c 0,5.013 -4.066,9.079 -9.079,9.079 H 128.364 c -5.012,0 -9.079,-4.066 -9.079,-9.079 0,-5.013 4.067,-9.079 9.079,-9.079 H 334.15 c 5.013,0 9.079,4.066 9.079,9.079 z"
             inkscape:connector-curvature="0" />
        </g>
        <g
           id="g1225" />
        <g
           id="g1227" />
        <g
           id="g1229" />
        <g
           id="g1231" />
        <g
           id="g1233" />
        <g
           id="g1235" />
        <g
           id="g1237" />
        <g
           id="g1239" />
        <g
           id="g1241" />
        <g
           id="g1243" />
        <g
           id="g1245" />
        <g
           id="g1247" />
        <g
           id="g1249" />
        <g
           id="g1251" />
        <g
           id="g1253" />
      </g>
    </g>
    <g
       id="g3208"
       style="fill:#00aa00;fill-opacity:1"
       transform="matrix(0.06608011,0,0,0.06574577,15.720386,265.57905)">
      <path
         id="rect2985"
         sodipodi:nodetypes="cccccscccc"
         style="fill:#00aa00;fill-opacity:1"
         inkscape:connector-curvature="0"
         d="m 60.294,241.17 17.798,11.892 -12.541,18.769 -18.118,9.8276 -0.52396,-0.3501 c 6.0916,-9.532 16.999,-26.122 14.957,-23.076 -1.0812,1.6126 -13.897,21.277 -15.056,23.01 l -0.61168,-0.40871 1.7709,-21.219 z" />
      <rect
         id="rect2988"
         style="fill:#00aa00;fill-opacity:1"
         transform="rotate(33.75)"
         height="55.971001"
         width="25.226"
         y="109.99"
         x="181.85001" />
      <path
         id="rect2990"
         sodipodi:nodetypes="ccccc"
         style="fill:#00aa00;fill-opacity:1"
         inkscape:connector-curvature="0"
         d="m 199.81,26.865 c 9.8036,0.10232 18.747,1.9336 22.19,14.827 l -109.49,163.87 -22.192,-14.83 z" />
    </g>
  </g>
</svg>
