<?xml version="1.0" encoding="UTF-8" standalone="no"?>
<!-- Created with Inkscape (http://www.inkscape.org/) -->

<svg
   xmlns:dc="http://purl.org/dc/elements/1.1/"
   xmlns:cc="http://creativecommons.org/ns#"
   xmlns:rdf="http://www.w3.org/1999/02/22-rdf-syntax-ns#"
   xmlns:svg="http://www.w3.org/2000/svg"
   xmlns="http://www.w3.org/2000/svg"
   xmlns:sodipodi="http://sodipodi.sourceforge.net/DTD/sodipodi-0.dtd"
   xmlns:inkscape="http://www.inkscape.org/namespaces/inkscape"
   width="150"
   height="150"
   viewBox="0 0 39.687499 39.687501"
   version="1.1"
   id="svg8"
   inkscape:version="0.92.3 (2405546, 2018-03-11)"
   sodipodi:docname="processoe-mail.svg"
   inkscape:export-filename="D:\OneDrive\images\Vector and anim\Flux\flux41.png"
   inkscape:export-xdpi="96"
   inkscape:export-ydpi="96">
  <defs
     id="defs2" />
  <sodipodi:namedview
     id="base"
     pagecolor="#ffffff"
     bordercolor="#666666"
     borderopacity="1.0"
     inkscape:pageopacity="0.0"
     inkscape:pageshadow="2"
     inkscape:zoom="1.4"
     inkscape:cx="58.339335"
     inkscape:cy="94.52883"
     inkscape:document-units="mm"
     inkscape:current-layer="layer1"
     showgrid="false"
     units="px"
     inkscape:window-width="1292"
     inkscape:window-height="829"
     inkscape:window-x="32"
     inkscape:window-y="41"
     inkscape:window-maximized="0"
     inkscape:snap-global="false" />
  <metadata
     id="metadata5">
    <rdf:RDF>
      <cc:Work
         rdf:about="">
        <dc:format>image/svg+xml</dc:format>
        <dc:type
           rdf:resource="http://purl.org/dc/dcmitype/StillImage" />
        <dc:title />
      </cc:Work>
    </rdf:RDF>
  </metadata>
  <g
     inkscape:label="Calque 1"
     inkscape:groupmode="layer"
     id="layer1"
     transform="translate(0,-257.31248)">
    <ellipse
       style="opacity:1;fill:#ffffff;fill-opacity:1;stroke:#c8b7b7;stroke-width:4;stroke-linecap:round;stroke-linejoin:round;stroke-miterlimit:4;stroke-dasharray:none;stroke-opacity:1"
       id="path814"
       cx="20.166374"
       cy="277.22775"
       rx="15.760881"
       ry="16.044363" />
    <g
       transform="matrix(0.36076477,0,0,0.34017856,3.9400644,284.45124)"
       inkscape:label="Calque 1"
       id="layer1-2"
       style="fill:#00aa00;fill-opacity:1">
      <path
         transform="translate(13,-50)"
         d="m 10,8 c -3.3137,0 -6,2.6822 -6,6 0.074392,9.0983 1.952e-4,18.727 0,28 0,3.1932 2.4839,5.7776 5.625,5.9688 l 44.625,0.031 c 3.199,-0.129 5.75,-2.765 5.75,-6 v -29.031 c -0.485,-2.829 -2.941,-4.969 -5.906,-4.969 -14.69,0.0067 -29.398,1e-4 -44.094,0 z m -0.09375,3.1562 h 44.375 l -21.469,21.469 c -0.39174,0.39174 -1.0145,0.39174 -1.4062,0 l -21.5,-21.469 z m 47.094,1.532 v 29.093 c 0,1.7334 -0.6245,2.7125 -1.875,3.0625 l -15.125,-15.156 17,-17 z m -49.656,0.124 16.718,16.719 -15.281,15.281 c -1.046,-0.353 -1.4101,-1.195 -1.4372,-2.343 v -29.656 z m 18.844,18.812 5.2188,5.25 c 0.39174,0.39174 1.0145,0.39174 1.4062,0 l 5.062,-5.062 13.187,13.188 h -38.25 l 13.375,-13.375 z"
         sodipodi:nodetypes="ccscccccccccccccccccccccccccccc"
         style="fill:#00aa00;fill-opacity:1"
         id="rect3174"
         inkscape:connector-curvature="0" />
    </g>
  </g>
</svg>
