<?xml version="1.0" encoding="UTF-8" standalone="no"?>
<!-- Created with Inkscape (http://www.inkscape.org/) -->

<svg
   xmlns:dc="http://purl.org/dc/elements/1.1/"
   xmlns:cc="http://creativecommons.org/ns#"
   xmlns:rdf="http://www.w3.org/1999/02/22-rdf-syntax-ns#"
   xmlns:svg="http://www.w3.org/2000/svg"
   xmlns="http://www.w3.org/2000/svg"
   xmlns:sodipodi="http://sodipodi.sourceforge.net/DTD/sodipodi-0.dtd"
   xmlns:inkscape="http://www.inkscape.org/namespaces/inkscape"
   width="150"
   height="150"
   viewBox="0 0 39.687499 39.687501"
   version="1.1"
   id="svg8"
   inkscape:version="0.92.3 (2405546, 2018-03-11)"
   sodipodi:docname="processoe-stock.svg"
   inkscape:export-filename="D:\OneDrive\images\Vector and anim\Flux\flux41.png"
   inkscape:export-xdpi="96"
   inkscape:export-ydpi="96">
  <defs
     id="defs2" />
  <sodipodi:namedview
     id="base"
     pagecolor="#ffffff"
     bordercolor="#666666"
     borderopacity="1.0"
     inkscape:pageopacity="0.0"
     inkscape:pageshadow="2"
     inkscape:zoom="2.8"
     inkscape:cx="102.42232"
     inkscape:cy="116.61562"
     inkscape:document-units="mm"
     inkscape:current-layer="layer1"
     showgrid="false"
     units="px"
     inkscape:window-width="1920"
     inkscape:window-height="1017"
     inkscape:window-x="-8"
     inkscape:window-y="-8"
     inkscape:window-maximized="1"
     inkscape:snap-global="false" />
  <metadata
     id="metadata5">
    <rdf:RDF>
      <cc:Work
         rdf:about="">
        <dc:format>image/svg+xml</dc:format>
        <dc:type
           rdf:resource="http://purl.org/dc/dcmitype/StillImage" />
        <dc:title />
      </cc:Work>
    </rdf:RDF>
  </metadata>
  <g
     inkscape:label="Calque 1"
     inkscape:groupmode="layer"
     id="layer1"
     transform="translate(0,-257.31248)">
    <ellipse
       style="opacity:1;fill:#ffffff;fill-opacity:1;stroke:#c8b7b7;stroke-width:4;stroke-linecap:round;stroke-linejoin:round;stroke-miterlimit:4;stroke-dasharray:none;stroke-opacity:1"
       id="path814"
       cx="20.166374"
       cy="277.22775"
       rx="15.760881"
       ry="16.044363" />
    <path
       inkscape:connector-curvature="0"
       id="path3794-4"
       d="m 10.195968,272.92651 v 1.2715 h 1.058767 v 8.16951 h -1.058767 v 1.27153 h 1.058767 v 1.93111 h 0.87123 v -1.93111 H 28.14789 v 1.93111 h 0.87123 v -1.93111 h 1.0616 v -1.27153 h -1.0616 v -8.16951 h 1.0616 v -1.2715 z m 1.929997,1.2715 H 28.14789 v 8.16951 H 12.125965 Z"
       style="color:#000000;font-style:normal;font-variant:normal;font-weight:normal;font-stretch:normal;font-size:medium;line-height:normal;font-family:Sans;-inkscape-font-specification:Sans;text-indent:0;text-align:start;text-decoration:none;text-decoration-line:none;letter-spacing:normal;word-spacing:normal;text-transform:none;writing-mode:lr-tb;direction:ltr;baseline-shift:baseline;text-anchor:start;display:inline;overflow:visible;visibility:visible;fill:#000000;fill-opacity:1;stroke:none;stroke-width:1.05241013;marker:none;enable-background:accumulate" />
    <rect
       ry="0.82196856"
       y="275.65182"
       x="13.175021"
       height="6.7432432"
       width="6.9862533"
       id="rect3824"
       style="fill:#00aa00;fill-opacity:1;stroke:none;stroke-width:0.12761246;stroke-linecap:round;stroke-linejoin:miter;stroke-miterlimit:4;stroke-dasharray:none;stroke-dashoffset:0" />
    <rect
       ry="0"
       y="268.47702"
       x="12.766829"
       height="4.4312735"
       width="7.0509405"
       id="rect3826"
       style="fill:#000000;fill-opacity:1;stroke:#000000;stroke-width:0.12761246;stroke-linecap:round;stroke-linejoin:miter;stroke-miterlimit:4;stroke-dasharray:none;stroke-dashoffset:0" />
    <path
       id="rect3824-8"
       d="m 20.980124,267.31118 v 1.05297 h 0.596213 v 0.10334 h -0.596213 v 1.05299 h 0.596213 v 0.0873 h -0.596213 v 1.05298 h 0.596213 v 0.0875 h -0.596213 v 1.05298 h 0.596213 v 0.11128 h -0.596213 v 1.05295 h 7.060019 v -1.05295 h -0.704434 v -0.11128 h 0.704434 v -1.05298 h -0.704434 v -0.0875 h 0.704434 v -1.05298 h -0.704434 v -0.0873 h 0.704434 v -1.05299 h -0.704434 v -0.10334 h 0.704434 v -1.05297 z m 5.847326,0.34966 c 0.105239,0 0.192094,0.0857 0.192094,0.19073 0,0.10503 -0.08638,0.19073 -0.192094,0.19073 -0.10523,0 -0.192085,-0.0857 -0.192085,-0.19073 0,-0.10504 0.08638,-0.19073 0.192085,-0.19073 z m -4.698723,0.003 c 0.10524,0 0.192094,0.0857 0.192094,0.19073 0,0.10504 -0.08638,0.19072 -0.192094,0.19072 -0.10523,0 -0.192085,-0.0857 -0.192085,-0.19072 0,-0.10514 0.08638,-0.19073 0.192085,-0.19073 z m 0.516274,0.69932 h 3.622203 v 0.10335 h -3.622203 z m 4.182449,0.42121 c 0.105239,0 0.192094,0.0857 0.192094,0.19073 0,0.10514 -0.08638,0.19071 -0.192094,0.19071 -0.10523,0 -0.192085,-0.0857 -0.192085,-0.19071 0,-0.10503 0.08638,-0.19073 0.192085,-0.19073 z m -4.698723,0.003 c 0.10524,0 0.192094,0.0857 0.192094,0.19075 0,0.10503 -0.08638,0.19072 -0.192094,0.19072 -0.10523,0 -0.192085,-0.0857 -0.192085,-0.19072 0,-0.10515 0.08638,-0.19075 0.192085,-0.19075 z m 0.516274,0.73112 h 3.622203 v 0.0875 h -3.622203 z m 4.182449,0.4212 c 0.105239,0 0.192094,0.0857 0.192094,0.19073 0,0.10503 -0.08638,0.18674 -0.192094,0.18674 -0.10523,0 -0.192085,-0.0817 -0.192085,-0.18674 0,-0.10504 0.08638,-0.19073 0.192085,-0.19073 z m -4.698723,0.003 c 0.10524,0 0.192094,0.0857 0.192094,0.19072 0,0.10504 -0.08638,0.18676 -0.192094,0.18676 -0.10523,0 -0.192085,-0.0817 -0.192085,-0.18676 0,-0.10503 0.08638,-0.19072 0.192085,-0.19072 z m 0.516274,0.71524 h 3.622203 v 0.0875 h -3.622203 z m 4.182449,0.40527 c 0.105239,0 0.192094,0.0817 0.192094,0.18678 0,0.10493 -0.08638,0.19072 -0.192094,0.19072 -0.10523,0 -0.192085,-0.0857 -0.192085,-0.19072 0,-0.10515 0.08638,-0.18678 0.192085,-0.18678 z m -4.698723,0.003 c 0.10524,0 0.192094,0.0817 0.192094,0.18675 0,0.10503 -0.08638,0.19072 -0.192094,0.19072 -0.10523,0 -0.192085,-0.0857 -0.192085,-0.19072 0,-0.10504 0.08638,-0.18675 0.192085,-0.18675 z m 0.516274,0.73113 h 3.622203 v 0.11127 h -3.622203 z m 4.182449,0.41721 c 0.105239,0 0.192094,0.0857 0.192094,0.19072 0,0.10514 -0.08638,0.19072 -0.192094,0.19072 -0.10523,0 -0.192085,-0.0857 -0.192085,-0.19072 0,-0.10503 0.08638,-0.19072 0.192085,-0.19072 z m -4.698723,0.003 c 0.10524,0 0.192094,0.0857 0.192094,0.19074 0,0.10503 -0.08638,0.19072 -0.192094,0.19072 -0.10523,0 -0.192085,-0.0857 -0.192085,-0.19072 0,-0.10514 0.08638,-0.19074 0.192085,-0.19074 z"
       style="fill:#00aa00;fill-opacity:1;stroke:#000000;stroke-width:0.00051046;stroke-linecap:round;stroke-linejoin:miter;stroke-miterlimit:4;stroke-dasharray:none;stroke-dashoffset:0"
       inkscape:connector-curvature="0" />
    <rect
       ry="0"
       y="276.01135"
       x="22.767767"
       height="6.3611865"
       width="2.558454"
       id="rect3826-1"
       style="fill:#000000;fill-opacity:1;stroke:#000000;stroke-width:0.09210075;stroke-linecap:round;stroke-linejoin:miter;stroke-miterlimit:4;stroke-dasharray:none;stroke-dashoffset:0" />
  </g>
</svg>
