<?xml version="1.0" encoding="UTF-8" standalone="no"?>
<!-- Created with Inkscape (http://www.inkscape.org/) -->

<svg
   xmlns:dc="http://purl.org/dc/elements/1.1/"
   xmlns:cc="http://creativecommons.org/ns#"
   xmlns:rdf="http://www.w3.org/1999/02/22-rdf-syntax-ns#"
   xmlns:svg="http://www.w3.org/2000/svg"
   xmlns="http://www.w3.org/2000/svg"
   xmlns:sodipodi="http://sodipodi.sourceforge.net/DTD/sodipodi-0.dtd"
   xmlns:inkscape="http://www.inkscape.org/namespaces/inkscape"
   width="150"
   height="150"
   viewBox="0 0 39.687499 39.687501"
   version="1.1"
   id="svg8"
   inkscape:version="0.92.3 (2405546, 2018-03-11)"
   sodipodi:docname="processoe-gear.svg"
   inkscape:export-filename="D:\OneDrive\images\Vector and anim\Flux\flux41.png"
   inkscape:export-xdpi="96"
   inkscape:export-ydpi="96">
  <defs
     id="defs2" />
  <sodipodi:namedview
     id="base"
     pagecolor="#ffffff"
     bordercolor="#666666"
     borderopacity="1.0"
     inkscape:pageopacity="0.0"
     inkscape:pageshadow="2"
     inkscape:zoom="2.8"
     inkscape:cx="124.80326"
     inkscape:cy="51.455818"
     inkscape:document-units="mm"
     inkscape:current-layer="layer1"
     showgrid="false"
     units="px"
     inkscape:window-width="1920"
     inkscape:window-height="1017"
     inkscape:window-x="-8"
     inkscape:window-y="-8"
     inkscape:window-maximized="1"
     inkscape:snap-global="false" />
  <metadata
     id="metadata5">
    <rdf:RDF>
      <cc:Work
         rdf:about="">
        <dc:format>image/svg+xml</dc:format>
        <dc:type
           rdf:resource="http://purl.org/dc/dcmitype/StillImage" />
        <dc:title></dc:title>
      </cc:Work>
    </rdf:RDF>
  </metadata>
  <g
     inkscape:label="Calque 1"
     inkscape:groupmode="layer"
     id="layer1"
     transform="translate(0,-257.31248)">
    <ellipse
       style="opacity:1;fill:#ffffff;fill-opacity:1;stroke:#c8b7b7;stroke-width:4;stroke-linecap:round;stroke-linejoin:round;stroke-miterlimit:4;stroke-dasharray:none;stroke-opacity:1"
       id="path814"
       cx="20.166374"
       cy="277.22775"
       rx="15.760881"
       ry="16.044363" />
    <g
       transform="matrix(0.12675286,0,0,0.12676916,-23.144302,195.53324)"
       inkscape:label="Ebene 1"
       id="layer1-4"
       style="fill:#00aa00;fill-opacity:1;stroke:none">
      <path
         d="m 336.78,565.51 c -1.5973,0.10936 -3.15,0.35671 -4.7194,0.53629 h -0.1063 l -3.7538,20.486 c -6.119,1.3934 -11.875,3.7582 -17.054,6.9717 l -16.85,-12.12 c -4.5522,3.5341 -8.6946,7.6559 -12.334,12.12 l 11.691,17.054 c -3.5496,5.4246 -6.2191,11.619 -7.7225,18.126 -1.8e-4,0.031 -1.8e-4,0.10198 0,0.10702 l -20.379,3.2177 c -0.3725,3.0431 -0.53624,6.1881 -0.53624,9.3313 0,2.5718 0.071,5.1092 0.32165,7.6152 l 20.379,3.6467 c 1.4493,7.0769 4.2026,13.686 8.0441,19.521 l -12.12,16.625 c 3.4711,4.3092 7.4784,8.2326 11.798,11.691 l 17.161,-11.798 c 5.9977,3.826 12.693,6.5088 19.95,7.8298 l 3.2176,20.272 c 2.2866,0.20798 4.6316,0.2145 6.9719,0.2145 3.3039,0 6.46,-0.12522 9.6531,-0.53628 l 3.8614,-20.701 c 6.8901,-1.7147 13.363,-4.6894 18.984,-8.6878 l 16.517,12.013 c 4.2835,-3.6443 8.2005,-7.8332 11.584,-12.335 l -12.013,-17.376 c 3.2534,-5.6185 5.5073,-11.818 6.6498,-18.448 l 20.272,-3.2177 c 0.17838,-2.1154 0.21297,-4.167 0.21297,-6.3282 0,-3.7556 -0.43675,-7.4379 -0.96556,-11.047 l -20.593,-3.754 c -1.6138,-5.9591 -4.2617,-11.519 -7.615,-16.518 l 12.12,-16.625 c -3.7569,-4.5944 -8.0424,-8.8386 -12.763,-12.442 l -17.483,12.013 c -5.0248,-2.9718 -10.432,-5.2519 -16.303,-6.5427 l -3.2176,-20.379 c -2.9286,-0.34452 -5.8815,-0.53628 -8.9021,-0.53628 -0.81656,0 -1.6567,-0.024 -2.4672,0 -0.39495,0.0126 -0.78593,-0.024 -1.1796,0 -0.1063,0.007 -0.21621,-0.007 -0.32269,0 z m 2.7888,52.127 c 0.39207,-0.0213 0.78323,0 1.18,0 12.696,0 23.06,10.364 23.06,23.06 0,12.696 -10.364,22.953 -23.06,22.953 -12.696,0 -22.953,-10.257 -22.953,-22.953 0,-12.299 9.6261,-22.444 21.773,-23.06 z"
         inkscape:connector-curvature="0"
         style="color:#000000;fill:#00aa00;fill-opacity:1;stroke:none;stroke-width:3.43219995"
         id="path3243" />
    </g>
  </g>
</svg>
