<?xml version="1.0" encoding="UTF-8" standalone="no"?>
<!-- Created with Inkscape (http://www.inkscape.org/) -->

<svg
   xmlns:dc="http://purl.org/dc/elements/1.1/"
   xmlns:cc="http://creativecommons.org/ns#"
   xmlns:rdf="http://www.w3.org/1999/02/22-rdf-syntax-ns#"
   xmlns:svg="http://www.w3.org/2000/svg"
   xmlns="http://www.w3.org/2000/svg"
   xmlns:sodipodi="http://sodipodi.sourceforge.net/DTD/sodipodi-0.dtd"
   xmlns:inkscape="http://www.inkscape.org/namespaces/inkscape"
   width="150"
   height="150"
   viewBox="0 0 39.687499 39.687501"
   version="1.1"
   id="svg8"
   inkscape:version="0.92.3 (2405546, 2018-03-11)"
   sodipodi:docname="processoe-stock.svg"
   inkscape:export-filename="D:\OneDrive\images\Vector and anim\Flux\flux41.png"
   inkscape:export-xdpi="96"
   inkscape:export-ydpi="96">
  <defs
     id="defs2" />
  <sodipodi:namedview
     id="base"
     pagecolor="#ffffff"
     bordercolor="#666666"
     borderopacity="1.0"
     inkscape:pageopacity="0.0"
     inkscape:pageshadow="2"
     inkscape:zoom="2.8"
     inkscape:cx="30.455263"
     inkscape:cy="84.154462"
     inkscape:document-units="mm"
     inkscape:current-layer="layer1"
     showgrid="false"
     units="px"
     inkscape:window-width="1920"
     inkscape:window-height="1017"
     inkscape:window-x="-8"
     inkscape:window-y="-8"
     inkscape:window-maximized="1"
     inkscape:snap-global="false" />
  <metadata
     id="metadata5">
    <rdf:RDF>
      <cc:Work
         rdf:about="">
        <dc:format>image/svg+xml</dc:format>
        <dc:type
           rdf:resource="http://purl.org/dc/dcmitype/StillImage" />
        <dc:title />
      </cc:Work>
    </rdf:RDF>
  </metadata>
  <g
     inkscape:label="Calque 1"
     inkscape:groupmode="layer"
     id="layer1"
     transform="translate(0,-257.31248)">
    <ellipse
       style="opacity:1;fill:#ffffff;fill-opacity:1;stroke:#c8b7b7;stroke-width:4;stroke-linecap:round;stroke-linejoin:round;stroke-miterlimit:4;stroke-dasharray:none;stroke-opacity:1"
       id="path814"
       cx="20.166374"
       cy="277.22775"
       rx="15.760881"
       ry="16.044363" />
    <g
       transform="matrix(1.3045211,0,0,1.4234005,2893.8695,1882.9718)"
       id="g44311">
      <path
         sodipodi:nodetypes="cccscscccc"
         inkscape:connector-curvature="0"
         id="path44315"
         d="m -2210.5536,-1123.6318 c -1.5779,-0.4267 -1.8753,-0.6429 -1.5383,-1.1181 0.1249,-0.1761 0.3728,-0.1539 1.3535,0.1213 0.6603,0.1853 1.2673,0.337 1.349,0.337 0.159,0 0.2209,-0.1794 2.5665,-7.4403 0.8477,-2.6243 1.6237,-5.0109 1.7244,-5.3034 0.153,-0.4444 0.2464,-0.5143 0.5675,-0.4247 0.2115,0.059 0.4123,0.1296 0.4464,0.1569 0.1358,0.1089 -4.5238,14.141 -4.6898,14.1233 -0.098,-0.011 -0.8985,-0.2139 -1.7792,-0.452 z"
         style="fill:#00aa00;fill-opacity:1" />
      <path
         sodipodi:nodetypes="ccccccccscccccccccccccccssccccscccsccccccccsccccccccssscss"
         inkscape:connector-curvature="0"
         id="path44313"
         d="m -2195.6764,-1123.4425 c -0.2869,-2.1563 -4.1002,-2.2042 -4.1726,0.3151 l -1.4896,-0.033 -1.1456,-0.033 c -0.2286,-2.3446 -3.8709,-2.1304 -3.9544,-0.021 -0.3445,0.2995 -0.4692,0.2073 -0.9255,-0.069 -0.2485,-0.1506 2.7952,-10.1131 3.2717,-10.7086 0.1799,-0.2249 0.6799,-0.5727 1.1109,-0.7728 0.7118,-0.3305 1.0339,-0.364 3.505,-0.364 h 2.7212 v 3.2286 3.2287 l 1.5575,0.047 1.5574,0.047 0.055,1.8601 c 0.066,2.2474 -0.1269,2.9699 -0.91,3.4038 -0.832,0.4609 -1.2233,0.4182 -1.1764,-0.1285 z m -6.9225,-3.8818 c -0.155,-0.2816 -0.1311,-1.5199 0.037,-1.918 0.054,-0.1285 0.4844,-0.2272 1.1207,-0.2573 0.916,-0.043 1.1864,-0.1331 1.2368,-0.4558 0.058,-0.3682 -0.4727,-0.629 -0.675,-0.3316 -0.1209,0.1779 -1.0275,0.3913 -1.4726,0.2365 -0.1549,-0.054 -0.2816,-0.2723 -0.2816,-0.4852 0,-0.3349 0.084,-0.3871 0.6257,-0.3871 0.4208,0 0.9411,-0.1903 1.5884,-0.5808 0.8985,-0.5421 0.9963,-0.5663 1.4657,-0.3623 0.481,0.2089 0.5054,0.2742 0.5554,1.4858 0.033,0.795 -0.025,1.3519 -0.1553,1.4945 -0.1708,0.1869 -0.109,0.2273 0.3482,0.2273 h 0.5558 v -2.8306 -2.8305 h -2.2426 c -1.7043,0 -2.3893,0.063 -2.854,0.2637 -0.7231,0.3118 -0.8337,0.4764 -1.2123,1.8041 l -0.2877,1.009 0.7356,0.6358 c 0.4046,0.3498 0.7007,0.7311 0.6581,0.8474 -0.1377,0.3757 -0.6507,0.3254 -1.1307,-0.1107 -0.2574,-0.2339 -0.5019,-0.3945 -0.5433,-0.3569 -0.081,0.074 -0.9491,2.8651 -0.9527,3.0648 0,0.067 0.6814,0.1213 1.517,0.1213 1.3876,0 1.5057,-0.024 1.3634,-0.283 z m 2.5738,-5.1886 c -0.391,-0.3926 -0.3727,-0.8838 0.046,-1.2279 0.4851,-0.3989 1.2782,-0.2744 1.6015,0.2515 0.2018,0.3817 0.05,0.499 -0.043,0.8492 -0.3662,0.5078 -1.1623,0.5709 -1.6042,0.1272 z m -0.8286,4.7438 c 0,-0.6201 -0.053,-0.7279 -0.3559,-0.7279 -0.2841,0 -0.356,0.1078 -0.356,0.5338 0,0.2935 -0.031,0.693 -0.1481,0.7997 -0.1662,0.151 -0.1525,0.1222 0.2905,0.1222 0.5564,0 0.5695,-0.017 0.5695,-0.7278 z"
         style="fill:#0a0a0a" />
    </g>
    <ellipse
       ry="2.1916702"
       rx="2.226234"
       cy="284.38873"
       cx="18.073044"
       id="path819"
       style="opacity:0.83999999;fill:#000000;fill-opacity:1;stroke:#00aa00;stroke-width:0.83094692;stroke-linecap:round;stroke-linejoin:round;stroke-miterlimit:4;stroke-dasharray:none;stroke-opacity:1" />
    <ellipse
       ry="2.2339687"
       rx="2.3157794"
       cy="284.23788"
       cx="26.860586"
       id="path819-8"
       style="opacity:0.83999999;fill:#000000;fill-opacity:1;stroke:#00aa00;stroke-width:0.9;stroke-linecap:round;stroke-linejoin:round;stroke-miterlimit:4;stroke-dasharray:none;stroke-opacity:1" />
  </g>
</svg>
