<?xml version="1.0" encoding="UTF-8" standalone="no"?>
<!-- Created with Inkscape (http://www.inkscape.org/) -->

<svg
   xmlns:dc="http://purl.org/dc/elements/1.1/"
   xmlns:cc="http://creativecommons.org/ns#"
   xmlns:rdf="http://www.w3.org/1999/02/22-rdf-syntax-ns#"
   xmlns:svg="http://www.w3.org/2000/svg"
   xmlns="http://www.w3.org/2000/svg"
   xmlns:sodipodi="http://sodipodi.sourceforge.net/DTD/sodipodi-0.dtd"
   xmlns:inkscape="http://www.inkscape.org/namespaces/inkscape"
   width="450mm"
   height="450mm"
   viewBox="0 0 450 450"
   version="1.1"
   id="svg8"
   inkscape:version="0.92.3 (2405546, 2018-03-11)"
   sodipodi:docname="process-gears.svg">
  <style
     id="style2">
	#animrotate1{
		animation-name: ckw;
		animation-duration: 16s;
		animation-iteration-count: infinite;
		transform-origin: 284px 175px;
		display: inline-block;
	}
   #animrotate2{
		animation-name: ckwr;
		animation-duration: 16s;
		animation-iteration-count: infinite;
		transform-origin: 144px 40px;
		display: inline-block;
	}
   #animrotate3{
		animation-name: ckw;
		animation-duration: 16s;
		animation-iteration-count: infinite;
		transform-origin: 303px -48px;
		display: inline-block;
	}
	@keyframes ckw {
		0% {
			transform: rotate(0deg);
		}
		100% {
			transform: rotate(360deg);
		}
	}
   @keyframes ckwr {
		0% {
			transform: rotate(360deg);
		}
		100% {
			transform: rotate(0deg);
		}
	}
   </style>
  <defs
     id="defs2" />
  <sodipodi:namedview
     id="base"
     pagecolor="#ffffff"
     bordercolor="#666666"
     borderopacity="1.0"
     inkscape:pageopacity="0.0"
     inkscape:pageshadow="2"
     inkscape:zoom="0.35"
     inkscape:cx="1068.6102"
     inkscape:cy="1100.3691"
     inkscape:document-units="mm"
     inkscape:current-layer="layer1"
     showgrid="false"
     units="mm"
     inkscape:snap-global="false"
     inkscape:window-width="1920"
     inkscape:window-height="1017"
     inkscape:window-x="-8"
     inkscape:window-y="-8"
     inkscape:window-maximized="1" />
  <metadata
     id="metadata5">
    <rdf:RDF>
      <cc:Work
         rdf:about="">
        <dc:format>image/svg+xml</dc:format>
        <dc:type
           rdf:resource="http://purl.org/dc/dcmitype/StillImage" />
        <dc:title />
      </cc:Work>
    </rdf:RDF>
  </metadata>
  <g
     inkscape:label="Calque 1"
     inkscape:groupmode="layer"
     id="layer1"
     transform="translate(0,153.00002)">
    <ellipse
       style="opacity:0.0001;fill:#217821;fill-opacity:0.85098039;stroke:#ffffff;stroke-width:0.10694843;stroke-linecap:round;stroke-linejoin:round;stroke-miterlimit:4;stroke-dasharray:none;stroke-dashoffset:1.91999972;stroke-opacity:1"
       id="path819"
       cx="284.2381"
       cy="175.76413"
       rx="53.701645"
       ry="52.851192" />
    <path
       inkscape:connector-curvature="0"
       style="fill:#415f6f;stroke-width:0.78216541"
       d="m 237.91998,109.26221 -13.84681,-8.36911 c -4.20439,3.35263 -8.26313,6.97186 -12.0279,11.12446 l 7.76958,14.1399 -9.68222,15.39344 -16.52585,-0.29771 c -1.93931,4.88605 -3.73195,10.03901 -4.68466,15.42538 l 13.84683,8.36913 -0.71975,18.10964 -14.48025,7.95659 c 0.14666,0.26691 0.02,0.68399 0.31289,1.2171 0.83311,4.75258 1.81253,9.77135 3.33827,14.49082 l 16.52584,0.29769 8.64911,15.74056 -8.75626,13.8422 c 3.3119,4.08459 6.89682,8.02006 11.02802,11.65448 l 14.48024,-7.95659 15.39967,9.25236 -0.63338,16.32568 c 4.91082,1.81702 10.09496,3.48385 15.53246,4.31651 l 8.75626,-13.84219 18.33131,0.34715 7.76957,14.13989 c 5.52384,-0.95127 10.62839,-2.01962 15.71268,-3.77091 l 0.63338,-16.32569 16.11948,-8.85732 13.84682,8.36912 c 4.20435,-3.35262 8.26313,-6.97185 12.02789,-11.12448 l -7.76957,-14.13989 9.68219,-15.3934 16.52584,0.29769 c 1.93933,-4.88608 3.73198,-10.03903 4.68469,-15.42541 l -13.84683,-8.36912 0.71976,-18.10963 14.48024,-7.9566 c -0.14664,-0.26687 -0.0199,-0.68398 -0.31288,-1.21709 -0.83315,-4.75256 -1.81257,-9.77134 -3.33828,-14.49083 l -16.52583,-0.29768 -8.64911,-15.74056 8.75626,-13.8422 c -3.31194,-4.08458 -6.89686,-8.02005 -11.02803,-11.65448 l -14.48024,7.95659 -15.39969,-9.25234 0.63341,-16.325717 c -4.91081,-1.816994 -10.09496,-3.483842 -15.53246,-4.316495 l -8.75626,13.842192 -18.33132,-0.347175 -7.76956,-14.139862 c -5.52384,0.951255 -10.62843,2.019625 -15.71268,3.77091 l -0.63339,16.325667 z m 93.88938,40.1069 c 14.073,25.61152 4.34362,58.39752 -21.88441,72.80928 -26.22801,14.41175 -59.24612,5.46206 -73.46577,-20.41635 -14.07299,-25.61151 -4.34361,-58.39752 21.88441,-72.80927 26.22802,-14.41175 59.39278,-5.19518 73.46577,20.41634 z"
       id="animrotate1" />
     <ellipse
       style="opacity:0.0001;fill:#217821;fill-opacity:0.85098039;stroke:#ffffff;stroke-width:0.1191653;stroke-linecap:round;stroke-linejoin:round;stroke-miterlimit:4;stroke-dasharray:none;stroke-dashoffset:1.91999972;stroke-opacity:1"
       id="path819-4"
       cx="144.13654"
       cy="40.170177"
       rx="58.609226"
       ry="60.121132" />

    <path
       inkscape:connector-curvature="0"
       style="fill:#217821;stroke-width:0.78216541"
       d="m 250.29822,43.13603 c 0,-5.922993 -0.30454,-12.157805 -1.21734,-18.080759 l -17.35124,-3.74077 -6.39281,-19.3274094 11.87202,-13.7163126 c -2.73999,-5.299239 -6.08827,-10.287439 -9.74109,-14.963742 l -17.0467,5.922953 -14.91578,-13.404415 3.65281,-18.080798 c -5.17469,-3.117016 -10.35015,-5.922954 -15.82936,-8.105177 l -11.5675,13.716312 -19.48218,-4.052627 -5.78374,-17.457044 c -5.78375,0 -11.87202,0.311897 -17.65577,1.246651 l -3.65281,17.768901 -18.87312,6.546708 -13.393896,-12.157805 c -5.174688,2.805939 -10.045616,6.234851 -14.612019,9.975582 l 5.783747,17.457044 -13.089369,15.27482 -17.655768,-3.740731 C 50.302551,-10.48335 47.562558,-5.1833314 45.43162,0.42780364 L 58.82552,12.585609 54.868179,32.536733 37.819148,38.148648 c 0,5.922954 0.304547,12.157766 1.217347,18.080759 l 17.655772,3.740731 6.392807,19.327409 -11.872026,13.716311 c 2.739998,5.29924 6.088279,10.287442 9.741088,14.963742 l 17.046713,-5.92295 14.915775,13.40446 -3.957341,18.08075 c 5.174688,3.11702 10.350147,5.92296 15.829367,8.10522 l 11.87202,-13.71631 19.48217,4.05259 5.78375,17.45704 c 5.78375,0 11.87202,-0.3119 17.65577,-1.24665 l 3.65281,-17.7689 18.87312,-6.54671 13.3939,12.1578 c 5.17468,-2.80593 10.04562,-6.23481 14.61202,-9.97554 l -5.78375,-17.45708 13.08937,-15.274782 17.65577,3.74073 c 3.04375,-5.29928 5.78375,-10.5993 7.91468,-16.210394 l -13.3939,-12.157805 3.95734,-19.951163 z M 144.0583,100.808 c -32.57232,0 -59.055586,-27.12155 -59.055586,-60.477129 0,-33.3555794 26.484046,-60.477127 59.055586,-60.477127 32.57154,0 59.05559,27.1215476 59.05559,60.477127 0,33.355579 -26.48327,60.477129 -59.05559,60.477129 z"
       id="animrotate2" />
   
      <ellipse
       style="opacity:0.0001;fill:#217821;fill-opacity:0.85098039;stroke:#ffffff;stroke-width:0.09542652;stroke-linecap:round;stroke-linejoin:round;stroke-miterlimit:4;stroke-dasharray:none;stroke-dashoffset:1.91999972;stroke-opacity:1"
       id="path819-3"
       cx="303.61819"
       cy="-48.044983"
       rx="47.292938"
       ry="47.778839" />

    <path
       inkscape:connector-curvature="0"
       style="fill:#638090;stroke-width:0.78216541"
       d="m 372.82848,-45.737521 12.78563,-5.299239 c -0.3047,-4.676304 -0.9136,-9.351828 -1.82638,-14.02817 l -13.69847,-1.870366 -5.78375,-14.651885 8.52374,-11.222232 c -2.43547,-4.052589 -5.17469,-7.793317 -8.21921,-11.222197 l -12.78562,5.299243 -12.17655,-9.663723 1.82641,-14.02817 -0.91359,-0.62371 c -3.95734,-1.87037 -7.91468,-3.74074 -11.87202,-4.98817 l -8.52375,11.2222 -15.2203,-2.18223 -5.17469,-13.40445 c -4.5664,0.3119 -9.13203,0.62375 -13.69843,1.55851 l -1.8264,14.02817 -14.61202,6.23485 -10.95844,-8.72893 c -3.95734,2.49408 -7.61015,5.29923 -10.95843,8.41707 l 5.17469,13.093376 -9.43656,12.469662 -13.69843,-1.870366 c -2.13094,4.052589 -3.95734,8.417035 -5.47922,13.093378 l 10.95844,8.728892 -2.13094,15.586678 -12.78561,5.299278 c 0.30454,4.676303 0.91359,9.351827 1.8264,14.02817 l 13.69843,1.870365 5.78375,14.651885 -8.52374,11.2221936 c 2.43546,4.052627 5.17469,7.793358 8.21921,11.222232 l 12.78561,-5.299239 12.17656,9.6636854 -1.82641,14.02817 0.91359,0.623754 c 3.95734,1.870365 7.91468,3.740731 11.87202,4.988161 l 8.52374,-11.222232 15.22031,2.182262 5.17469,13.093377 c 4.5664,-0.311896 9.13203,-0.623715 13.69843,-1.870365 l 1.8264,-14.02817 14.30749,-5.922993 10.95843,8.728931 c 3.95735,-2.494081 7.61016,-5.299239 10.95844,-8.417074 l -5.17469,-13.0933774 9.43656,-12.4696626 13.69844,1.8703659 c 2.13095,-4.0525889 3.95735,-8.4170349 5.47923,-13.0933769 l -10.95846,-8.728892 c 0,0 2.43547,-15.275639 2.43547,-15.275639 z M 303.11821,0.39961664 c -26.17951,0 -47.18356,-21.50967164 -47.18356,-48.31936064 0,-26.80969 21.00405,-48.319322 47.18356,-48.319322 26.17951,0 47.18357,21.509632 47.18357,48.319322 0,26.809689 -21.00406,48.31936064 -47.18357,48.31936064 z"
       id="animrotate3" />
   

  </g>
</svg>
