<svg id="Calque_1" data-name="Calque 1" xmlns="http://www.w3.org/2000/svg" xmlns:xlink="http://www.w3.org/1999/xlink" viewBox="0 0 1920 1080"><defs><style>.cls-1{fill:url(#Dégradé_sans_nom_12);}.cls-2,.cls-3,.cls-4,.cls-5,.cls-6,.cls-7{fill:#483fb8;}.cls-3{opacity:0.8;}.cls-4{opacity:0.34;}.cls-5{opacity:0.66;}.cls-6{opacity:0.52;}.cls-7{opacity:0.74;}</style><linearGradient id="Dégradé_sans_nom_12" x1="210" y1="1290" x2="1710" y2="-210" gradientUnits="userSpaceOnUse"><stop offset="0" stop-color="#483fb8"/><stop offset="1" stop-color="#ec7a99"/></linearGradient></defs><title>background1</title><rect class="cls-1" width="1920" height="1080"/><path class="cls-2" d="M435.69,487.23c25.87-5.07,52.3,4.45,71,24.67,33.87,36.59,69.94,32.1,94.49,16.58C633.42,508.11,595.41,375,538.8,375S349.58,454.68,394.2,480C409.26,488.59,423.47,489.62,435.69,487.23Z"/><path class="cls-3" d="M1057,308c33,78.06,22,248-27,256S723.8,284.3,745,226C777,138,1013,204,1057,308Z"/><path class="cls-4" d="M1920,445.38c-64.78-51.4-135.19-86.37-176-63-90,51.62-93,247-93,247-30,158.55-21,180.67,159,261.79,42.16,19,78.72,18.38,110,5.43Z"/><path class="cls-2" d="M106.5,0C118.8,88.64,275.4,204,358,189c68.24-12.41,19.83-118.61-34.27-189Z"/><path class="cls-5" d="M1309.37,0c-17.3,54.45-22.1,119.38,1.3,192.53,72.84,227.61,85.58,307.72,127.46,284C1464.37,461.75,1519.21,190.49,1518,0Z"/><path class="cls-6" d="M1200.79,1080c29.71-58.89,51.45-120.83,57.52-163.07,17.46-121.66-133.14-212.9-183.7-185.33C987.15,779.28,940.94,947.22,949.46,1080Z"/><path class="cls-7" d="M266.33,625.65C146.27,574.79,54.54,612.37,0,651V861.1c30.84,34,73,81.78,153,178.67,13.57,16.42,27.06,29.7,40.42,40.23H375.56c49.68-35,88.49-88.56,109-117.18C530.75,898.46,467.79,711,266.33,625.65Z"/></svg>